<mxfile host="app.diagrams.net" modified="2024-02-13T17:31:57.907Z" agent="Mozilla/5.0 (Macintosh; Intel Mac OS X 10.15; rv:109.0) Gecko/20100101 Firefox/115.0" etag="hcAxFSf0mTu0joAeCFKb" version="23.1.3" type="github">
  <diagram name="Page-1" id="igm-xTlKHYJiB2UXf1PZ">
    <mxGraphModel dx="1434" dy="746" grid="1" gridSize="10" guides="1" tooltips="1" connect="1" arrows="1" fold="1" page="1" pageScale="1" pageWidth="850" pageHeight="1100" math="0" shadow="0">
      <root>
        <mxCell id="0" />
        <mxCell id="1" parent="0" />
        <mxCell id="IS6DVIYhrCRW7QBuljSE-1" value="Amazon EC2" style="sketch=0;outlineConnect=0;fontColor=#232F3E;gradientColor=none;strokeColor=#ffffff;fillColor=#232F3E;dashed=0;verticalLabelPosition=middle;verticalAlign=bottom;align=center;html=1;whiteSpace=wrap;fontSize=10;fontStyle=1;spacing=3;shape=mxgraph.aws4.productIcon;prIcon=mxgraph.aws4.ec2;" parent="1" vertex="1">
          <mxGeometry x="380" y="110" width="80" height="100" as="geometry" />
        </mxCell>
        <mxCell id="IS6DVIYhrCRW7QBuljSE-2" value="Amazon EKS on EC2" style="sketch=0;outlineConnect=0;fontColor=#232F3E;gradientColor=none;strokeColor=#ffffff;fillColor=#232F3E;dashed=0;verticalLabelPosition=middle;verticalAlign=bottom;align=center;html=1;whiteSpace=wrap;fontSize=10;fontStyle=1;spacing=3;shape=mxgraph.aws4.productIcon;prIcon=mxgraph.aws4.eks;" parent="1" vertex="1">
          <mxGeometry x="370" y="110" width="80" height="100" as="geometry" />
        </mxCell>
        <mxCell id="IS6DVIYhrCRW7QBuljSE-3" value="&lt;div&gt;On-Premise- Legacy&lt;/div&gt;&lt;div&gt;Leads Come in, are contacted, billing via custom app, all on Java CRM&lt;br&gt;&lt;/div&gt;" style="sketch=0;outlineConnect=0;gradientColor=none;html=1;whiteSpace=wrap;fontSize=12;fontStyle=0;shape=mxgraph.aws4.group;grIcon=mxgraph.aws4.group_on_premise;strokeColor=#858B94;fillColor=none;verticalAlign=top;align=left;spacingLeft=30;fontColor=#858B94;dashed=0;" parent="1" vertex="1">
          <mxGeometry x="70" y="100" width="130" height="130" as="geometry" />
        </mxCell>
        <mxCell id="IS6DVIYhrCRW7QBuljSE-4" value="Modernize Servers-?" style="rounded=1;whiteSpace=wrap;html=1;" parent="1" vertex="1">
          <mxGeometry x="60" y="280" width="120" height="60" as="geometry" />
        </mxCell>
        <mxCell id="IS6DVIYhrCRW7QBuljSE-5" value="&lt;div&gt;Business- telesales to digital sales&lt;/div&gt;&lt;div&gt;productize APis, B2B, wanted Mulesoft API moved away from that due to change in , appetite for AIML, ML, GenAI , data allover:&lt;br&gt;&lt;/div&gt;" style="rounded=1;whiteSpace=wrap;html=1;" parent="1" vertex="1">
          <mxGeometry x="360" y="350" width="120" height="60" as="geometry" />
        </mxCell>
        <mxCell id="IS6DVIYhrCRW7QBuljSE-6" value="S3 Data Lake, Athena, SageMaker, Bedrock, " style="rounded=1;whiteSpace=wrap;html=1;" parent="1" vertex="1">
          <mxGeometry x="590" y="440" width="120" height="60" as="geometry" />
        </mxCell>
        <mxCell id="IS6DVIYhrCRW7QBuljSE-7" value="&lt;div&gt;1.telesales workflows- marketing lead data/CRM Php&lt;/div&gt;&lt;div&gt;2.dotnet finance and payment processing and financial reporting GreatPlains&lt;br&gt;&lt;/div&gt;&lt;div&gt;3.java and desktop app CRM&lt;br&gt;&lt;/div&gt;" style="rounded=0;whiteSpace=wrap;html=1;" parent="1" vertex="1">
          <mxGeometry x="70" y="350" width="180" height="130" as="geometry" />
        </mxCell>
        <mxCell id="IS6DVIYhrCRW7QBuljSE-8" value="Working with everflow.io as partner " style="whiteSpace=wrap;html=1;" parent="1" vertex="1">
          <mxGeometry x="80" y="490" width="120" height="60" as="geometry" />
        </mxCell>
        <mxCell id="IS6DVIYhrCRW7QBuljSE-9" value="API Gateway, AppFlow" style="rounded=1;whiteSpace=wrap;html=1;" parent="1" vertex="1">
          <mxGeometry x="580" y="350" width="120" height="60" as="geometry" />
        </mxCell>
        <mxCell id="IS6DVIYhrCRW7QBuljSE-10" value="Salesforce CRM marketplace" style="whiteSpace=wrap;html=1;" parent="1" vertex="1">
          <mxGeometry x="50" y="560" width="120" height="60" as="geometry" />
        </mxCell>
        <mxCell id="IS6DVIYhrCRW7QBuljSE-11" value="Pinpoint, Connect, " style="whiteSpace=wrap;html=1;" parent="1" vertex="1">
          <mxGeometry x="580" y="250" width="120" height="60" as="geometry" />
        </mxCell>
        <mxCell id="ZnKZwp2DaF4M9x0P8iEY-1" value="" style="sketch=0;points=[[0,0,0],[0.25,0,0],[0.5,0,0],[0.75,0,0],[1,0,0],[0,1,0],[0.25,1,0],[0.5,1,0],[0.75,1,0],[1,1,0],[0,0.25,0],[0,0.5,0],[0,0.75,0],[1,0.25,0],[1,0.5,0],[1,0.75,0]];outlineConnect=0;fontColor=#232F3E;gradientColor=#4D72F3;gradientDirection=north;fillColor=#3334B9;strokeColor=#ffffff;dashed=0;verticalLabelPosition=bottom;verticalAlign=top;align=center;html=1;fontSize=12;fontStyle=0;aspect=fixed;shape=mxgraph.aws4.resourceIcon;resIcon=mxgraph.aws4.connect;" vertex="1" parent="1">
          <mxGeometry x="640" y="530" width="78" height="78" as="geometry" />
        </mxCell>
        <mxCell id="ZnKZwp2DaF4M9x0P8iEY-2" value="Amazon Pinpoint" style="sketch=0;outlineConnect=0;fontColor=#232F3E;gradientColor=none;strokeColor=#ffffff;fillColor=#232F3E;dashed=0;verticalLabelPosition=middle;verticalAlign=bottom;align=center;html=1;whiteSpace=wrap;fontSize=10;fontStyle=1;spacing=3;shape=mxgraph.aws4.productIcon;prIcon=mxgraph.aws4.pinpoint;" vertex="1" parent="1">
          <mxGeometry x="450" y="530" width="80" height="110" as="geometry" />
        </mxCell>
        <mxCell id="ZnKZwp2DaF4M9x0P8iEY-3" value="Salesforce and Pinpoint for CRM/marketing integration: https://aws.amazon.com/blogs/apn/engaging-salesforce-customers-with-bidirectional-sms-using-aws/" style="whiteSpace=wrap;html=1;" vertex="1" parent="1">
          <mxGeometry x="10" y="680" width="550" height="60" as="geometry" />
        </mxCell>
      </root>
    </mxGraphModel>
  </diagram>
</mxfile>
